<svg xmlns="http://www.w3.org/2000/svg" viewBox="0 0 1693.89 450.34"><title>logo_black</title><g id="Capa_2" data-name="Capa 2"><g id="Capa_1-2" data-name="Capa 1"><path d="M215.6,220.09c-4.91,9.63-9.41,17.91-13.42,26.43-4.59,9.74-10,19.36-17.66,26.44-13.18,12.17-27.07,19.87-43.85,7.23-5.72-4.3-8.34-10.56-10.84-16.94C122.67,245,118.29,225.84,113,207c-4.67-16.6-6.36-33.94-12.61-50.13-1.65-4.29-3.2-8.62-4.81-12.95C87.74,176.66,83,210,73.27,242.17c-8.35,27.52-11.87,56.16-20.12,83.68-1,3.23-1.94,6.43-4.6,8.65-1.9,1.6-2,3.81-2.33,5.87-1.48,9-6,16.49-11.83,23.25A15.8,15.8,0,0,1,14.82,367C3,360.8-1.71,350.34.55,337.78c3.71-20.58,7-41.3,12.62-61.49,4.34-15.5,10.24-30.6,13.21-46.43,3.46-18.44,9.78-36.05,14.33-54.14,4.28-17.07,10-33.76,13.68-50.94,3.06-14.11,4.94-28.48,7.79-42.65a281.82,281.82,0,0,0,4.26-33.54c.89-11.22,14.06-22.29,30.19-13,9.46,5.43,14.93,14.33,18.91,23.78,7.33,17.44,13.84,35.24,20.33,53,8.65,23.73,14.63,48.3,22.53,72.27,2.19,6.62,4.72,13.13,7.13,19.68.46,1.22.81,2.79,2.34,3,1.76.21,1.72-1.6,2.26-2.66C181,183.54,186.87,160.8,192,137.78c2.2-9.85,4-19.77,8-29.25,5.11-12.36,5.64-25.93,8.95-38.81s7.41-25.62,15.16-36.6c5.45-7.73,13.12-12.6,23.07-10.73,8.26,1.56,12.95,7.26,15.3,15.33a127.75,127.75,0,0,1,5.4,31.88c.85,26.14,2.63,52.27,2.64,78.41,0,16.45-.65,33-1.06,49.43-.45,18.15-1.56,36.27-2.63,54.36-1.31,21.94-.63,43.93-2.1,65.79a367.65,367.65,0,0,0-.35,40.37c.7,16.24-17.75,26.23-30,22.25-7.83-2.54-10.4-9.49-12.16-16.47-4.46-17.61-4.15-35.69-4-53.65.2-25,1-49.95,0-74.93A71.45,71.45,0,0,0,215.6,220.09Z"/><path d="M1201,114.24a89.38,89.38,0,0,1-5.94,39.85c-3.46,8.88-8.63,17.13-13.41,25.45-5,8.65-9.63,17.48-14.75,26a198.46,198.46,0,0,1-21,27.9,32.64,32.64,0,0,0-6.08,10.21,9.64,9.64,0,0,0,3.87,11.69,6.75,6.75,0,0,1,3.28,4.23c3.44,16,10.33,31.25,9.89,48.05-.27,10.67-2.59,21.05-4.82,31.37-5.54,25.7-19.19,47.17-36.83,66.17-9.72,10.46-22.36,17.19-34.41,24.54-9.77,6-20.73,9.79-30.26,16.22-4.56,3.08-9.52,1.5-14.31,2-5.87.62-11.51,3.09-17.64,1.63a11.86,11.86,0,0,1-5-1.94c-8.52-6.91-16.88-14-23.45-22.88a12.93,12.93,0,0,1-2.05-6.1A83.94,83.94,0,0,1,989.85,388c3.81-16.65,6.28-33.61,9.21-50.46,1.91-11,3.37-22,5.54-32.93a193.5,193.5,0,0,0,3.55-26.66c1.37-24.24,1.61-48.52,3.36-72.77,1.24-17.24,3.34-34.52,3.16-51.79a462.09,462.09,0,0,1,2.61-51.07,670.59,670.59,0,0,0,2.86-67.8c0-7.24,1.82-14.19,6.67-20,3.83-4.54,8.66-6.06,14.33-4.17,1.94.65,3.65,1.34,5.69.24,14.64-7.88,30.8-9,46.87-10.23a134.76,134.76,0,0,1,30.44,1c12.08,1.87,23.43,5.89,32.7,14.41a10.81,10.81,0,0,0,4.09,2.78c7,1.89,10.34,7.56,13.32,13.26,4.85,9.33,11.77,17.29,16.9,26.47,3.57,6.39,5,13.13,5.55,20C1197.78,90.78,1202.68,102.73,1201,114.24ZM1057,225.73c.11,2,.39,4,.3,6-.19,4,1.31,4.68,4.51,2.55,11.73-7.79,24.94-13.23,35.85-22.35,10.72-8.95,21.19-17.95,29.32-29.67,4.93-7.1,7.56-15.13,12-22.26,4.16-6.67,7-13.91,10.64-20.81s2.68-14.61,4.81-21.65c2.69-8.89,4.27-17.65,2.62-26.94-1.93-10.88-3.49-22.14-12.55-29.58-5.39-4.44-12.39-6.87-18.39-10.65-6.21-3.92-12.69-6.64-20-5.12-11.65,2.4-23.59,3.14-35.11,6.3-3.73,1-5.14,2.85-5.26,7-.62,20.12-1.12,40.26-3.62,60.28-2,16.33-4.11,32.64-5.35,49.08C1055.26,187.24,1057.83,206.46,1057,225.73Zm54,77.41c-.24-5.16.08-10.36-1.1-15.43a35.86,35.86,0,0,0-2.2-6.61c-2.9-6.45-14.23-10.66-20.51-7.58-11,5.41-22.49,9.91-33.22,16a6.21,6.21,0,0,0-3.59,5.28c-2.21,17.49-4.5,35-7,52.41-2.22,15.32-5.14,30.55-4.67,46.13,0,1.54-.92,3.93.81,4.46s3.88-1,4.92-2.65,2.36-3.58,4.34-3.83c6.33-.81,11.29-4.68,16.85-7.16,10.11-4.52,18.68-11.63,26-19.66,5-5.5,8.34-12.73,11.58-19.58,2.43-5.18,6.57-9.72,6.78-15.87C1110.27,320.39,1111.47,311.79,1111,303.14Z"/><path d="M656.54,313.36c-3,9.67-9.34,17.86-10.22,28.43-1,11.58-3.17,23-1.51,34.73.7,4.9.85,9.84,1.94,14.75,1.53,7-4.43,14.71-12.51,17.65-6,2.17-11.08.69-17-1.39-10.58-3.71-11.15-11.72-12.25-20.43a446,446,0,0,1-3.13-53.32c-.14-19.44,3.84-38.38,6.18-57.53,2.83-23.12,5-46.34,8.06-69.43,2.18-16.51,3.12-33.24,6.37-49.49,2.28-11.38,2.8-23,6-34.24a19.1,19.1,0,0,0,.67-4.94c.16-14.8.21-29.61.41-44.41.1-7.66,1.88-15.2,1.63-22.9A70.81,70.81,0,0,0,630.19,39c-2.9-14.31,11.24-29.31,25.74-27.63a12.25,12.25,0,0,1,7.75,4.13c6.27,6.8,10.53,13.8,9,24-1.17,7.76-.3,16,0,23.92.71,17.84-1.3,35.65.08,53.46.16,2-1.13,5,2.29,5.73,3.07.69,4.4-1.75,5.69-3.7,6.84-10.39,12.84-21.31,19.44-31.82,5.53-8.79,8.93-18.39,13.46-27.55,7.64-15.45,16-30.55,24.2-45.73a27.64,27.64,0,0,1,4.54-5.93C747,3.1,752.18-.61,759.49,1.05c7.7,1.74,13.18,5.76,15.51,13.72,4.24,14.45,1.85,28.4-3.35,42-8.45,22-19.65,42.63-32.37,62.53-8.65,13.55-16.18,27.83-25.34,41.09-10.47,15.16-18.27,32-29.75,46.55a66.42,66.42,0,0,0-8.71,15c-3.59,8.44-2.31,17.46-.51,26,3.37,16,10.65,30.58,17.22,45.5,12.5,28.39,29.1,54.48,43.64,81.72,4.06,7.61,7.67,15.46,12.24,22.81,3.4,5.49,3.06,11-.23,16.49a7.09,7.09,0,0,1-1.45,2c-3.49,2.72-8.12,2.42-12,4.41-1.6.82-4.93-1.33-7.28-2.51-11.23-5.64-18.8-15.12-25.73-25.16-9.56-13.85-16.94-29-25.27-43.54-5.85-10.25-12.12-20.23-16.41-31.29C659,316.59,658.24,314.64,656.54,313.36Z"/><path d="M1574.36,343c-9.33,14.52-12.51,29.85-13.37,45.84-.09,1.8-.79,3.56-1,5.36-.71,7-1.72,13.56,1.47,20.86,5.61,12.85-3.93,25.93-18.11,25.78-5.91-.06-11.11-3.92-16.25-6.78-3.5-1.93-4-6-4.5-9.61-4.15-31.63-6.26-63.23-1.23-95,3.69-23.33,6.43-46.8,8.77-70.33,2-19.69,4.93-39.28,7.25-58.94,2-16.79,5.73-33.29,8.12-50a20.47,20.47,0,0,0,.42-4c-.82-13.32.21-26.62.32-39.92.09-9.63,1.13-19.25,1.68-28.87a25,25,0,0,0-.61-6.36c-2.27-11.48,3.52-25.81,17.41-28.57s26.42,10.53,24.62,24.79c-1.05,8.36-.21,17-.2,25.45q0,27.24.1,54.47c0,2.18-.75,5,2.5,5.71,3,.66,4.27-1.85,5.64-3.82,7.56-10.92,13.53-22.84,20.74-33.94,4.88-7.49,7.87-15.6,11.29-23.63,5.67-13.31,13.73-25.37,20.17-38.27,2.67-5.36,5.27-10.76,9.45-15.18,4.66-4.92,10-8.41,17.17-6.79,7.39,1.68,12.81,5.49,15.28,13.3,4.63,14.65,1.92,28.61-3.24,42.34-8.31,22.11-19.7,42.61-32.33,62.57-8.78,13.86-16.54,28.39-25.87,41.92-10.18,14.76-17.8,31.12-28.9,45.33a73.39,73.39,0,0,0-9.15,15.9c-3.73,8.62-2.2,17.69-.2,26.43,3.62,15.79,10.77,30.22,17.24,45,12.31,28.11,28.83,53.87,43.15,80.84,4.2,7.92,8.31,15.87,12.66,23.72,5.37,9.71,1.14,17.21-9.16,20.76s-16.37-2.7-22.43-8.21c-15.8-14.35-25.3-33.22-35.15-51.71C1590,374,1579.6,359.92,1574.36,343Z"/><path d="M1399.62,341.31c-.1,12.72.64,25.25,6.23,37.05,1.88,4,4.56,5.39,8.77,6.11,6.42,1.09,12.37-.38,18.49-1.55a6.17,6.17,0,0,0,3.61-2.39c5.74-6.42,11.8-12.54,17.11-19.36s12.51-11.09,21.35-8.16,13.56,10,15.1,19.34c1.73,10.55-1.44,19.31-8.23,27.14-7,8-12.56,17.63-22.31,22.55-12.63,6.37-25.28,13-40.57,9.91-5.59-1.12-11.64-.18-17.55-.65-10.11-.81-17.37-5.85-24.37-12.23-10.12-9.24-13.36-21.85-17.14-34.23-3.74-12.21-4-24.91-4.61-37.45-.8-16.42-2.76-33,.67-49.31,2.48-11.78,1.73-24,4.91-35.49,3.49-12.64,6.13-25.49,9.88-38.06,7.06-23.7,10.86-48.25,18.16-71.87q10.2-33,22.87-65.27c6.06-15.33,16.42-27.42,26.34-39.95,3.52-4.46,8.31-7.65,13.26-10.47,9.87-5.63,20.54-4.17,31.07,2.13,5.29,3.17,10.67,5.94,15,11a44.22,44.22,0,0,1,7.08,11.07c2.07,4.71,3.66,9.59,7.27,13.47a11.27,11.27,0,0,1,3,6.77c.8,10.34.88,20.66-3.92,30.26-3.68,7.34-12.33,15.2-22.76,14-7.65-.9-15.85-7.28-18-14.73a74.37,74.37,0,0,0-3.7-10.27c-1.29-2.83-3.27-3.71-6.09-1.19a22.67,22.67,0,0,0-5.29,7.14c-6.24,12.55-10.09,26-14.25,39.28-5.46,17.48-9.15,35.35-13,53.23-1.79,8.36-5,16.49-8.37,24.41-9.3,22.16-13.46,45.47-16.35,69.11C1401.24,308.77,1400,325,1399.62,341.31Z"/><path d="M483,310.74c-.37,12.76.7,25.23,6,37.11,2,4.41,5,5.76,9.51,6.61,6.34,1.17,12-.71,18-1.77a6,6,0,0,0,3.65-2.31c5.65-6.5,11.84-12.51,17.07-19.4s12.36-10.79,20.94-8.25c8.37,2.48,13.32,8.88,15.16,17.61,2.21,10.5,0,19.79-7,27.91-6.38,7.43-11.43,16.42-20,21.47-13.21,7.82-26.72,15.1-43.36,12.08-5.78-1.05-12-.23-18.08-.67-11.34-.84-19.05-7-26.41-14.43-9.09-9.17-11.77-21.32-15.27-33.05-3.84-12.87-3.68-26.27-4.49-39.48-.89-14.77-1.92-29.63.41-44.38,1.37-8.69,2.69-17.36,3.73-26.11,2.33-19.66,8.76-38.46,13.69-57.55,4.23-16.38,7.8-32.92,12-49.31,5.54-21.9,13.07-43.18,21-64.32,2.8-7.45,5.58-14.91,8.56-22.29,1.75-4.32,3.91-8.43,7.51-11.63,3.41-3,5.1-7.33,7.62-11,7.47-10.9,16.44-20.11,29.77-23.64,7.91-2.09,15.22.65,22,4.19,6.46,3.38,12.75,7.33,17.58,13.07a35,35,0,0,1,5.57,9.89c1.82,4.62,3.56,9.23,7,13.07,4.53,5.08,3.79,11.61,3.62,17.66C598.37,73,596,83.43,586.32,91a21.06,21.06,0,0,1-25.3.19c-5.57-4.09-7.62-9.59-9.18-15.68-.8-3.09-1.8-7.41-4.64-7.63-3.57-.28-6.11,3.44-7.84,6.78-6.76,13.06-10.9,27.09-15.18,41.07A528.06,528.06,0,0,0,511.53,168c-1.56,7.89-4.65,15.57-7.78,23-7.89,18.84-12.65,38.46-15.5,58.6A517.11,517.11,0,0,0,483,310.74Z"/><path d="M426.52,285.62c-1.45,14.16-1.92,30-8.32,44.77-1.64,3.8-2.65,7.84-4.12,11.72-6.31,16.69-18.65,25.81-35.46,30.4-13,3.56-26,3.62-39.37,3-12.35-.6-20.87-8.07-30.78-13.61-9.68-5.42-12.92-12.95-14.23-23.22-.73-5.68-3.63-11.12-4.66-17.12-1.68-9.87-.48-19.07,2.35-28.46,6.77-22.46,15-44.31,26.1-65a116,116,0,0,1,17.35-24.28c9.27-9.91,21.46-15.05,34.6-18.55,10.77-2.86,18.12-.33,26,7.92,7.58,8,13.15,17.38,20.77,25.18a8.88,8.88,0,0,1,1.94,4.54c1.53,9,4.85,17.55,5.17,26.84C424.22,261.2,425.5,272.63,426.52,285.62Zm-83.75,25.71c0,.33,0,.66-.07,1-.64,10.28-.63,10.31,9.53,9.34,4.08-.38,8.82.42,11.78-2.94a53.73,53.73,0,0,0,13.12-27.26c1-6.13.45-12.22,0-18.34a111.33,111.33,0,0,0-3.39-21.05c-.59-2.26-1.28-5.22-4.07-5.76-2.54-.49-4,1.93-5.63,3.52-2.53,2.44-5.13,5-6.25,8.28C351.83,275.57,340.91,291.65,342.77,311.33Z"/><path d="M1185.23,373.15c-2.65-22.41,1.1-44.42,3.54-66.58,1.56-14.2,2.48-28.5,4.18-42.71.67-5.51,3.06-10.58,5.53-15.38,5.78-11.21,21.6-12.58,31.12-4.53,8.86,7.49,6.21,16.28,5.36,25.08-.2,2-1,4.11-1,6.26.16,19.15.49,38.3.4,57.45-.05,10.3.29,20.75-1,30.84-.86,7-1.66,13.64-.33,20.45.51,2.62-.45,6.62,3.74,7.14,4.65.57,9-.26,11.48-5,2.32-4.4,5.26-8.55,7.07-13.15,5.16-13.11,14.42-24.41,17.53-38.33,2.2-9.85,4.84-19.6,6.43-29.64,2.62-16.58,7.26-32.79,15.23-47.65,3.81-7.1,9.42-13,19.21-11.16,5.48,1,9.3,3.63,11.09,8.77,2.18,6.3,3.77,12.72,3.43,19.52-.81,16.08-5.2,31.44-9.27,46.84-5.82,22-12.8,43.58-21.93,64.43-6.24,14.25-15.71,25.91-27.67,36-16.19,13.59-34.22,13.56-53,8.34-10.86-3-18.38-11-24.65-20.05-3.17-4.59-3.15-10-3.91-15.28C1186.91,387.54,1184.06,380.6,1185.23,373.15Z"/><path d="M923.78,241.63c.55,16,1.12,31.94,1.62,47.92a50.12,50.12,0,0,1-1.81,15.81c-1,3.28-2.89,5.57-6.13,5.59s-5.36-2.18-6.45-5.36A49.07,49.07,0,0,1,908,289c.19-14.55-4.24-28.2-8-42-.78-2.89-1.86-5.26-6.12-4.7a428.45,428.45,0,0,1-44.7,3.85c-3.69.09-5.55,1.1-6.48,5.08a300.26,300.26,0,0,1-15.57,47.24,53.51,53.51,0,0,1-3.52,7.12c-2.29,3.8-5.53,6.53-10.24,5.54-4.94-1-7.41-4.77-8.25-9.56-1-5.61.26-11,2.47-16.06,4.36-9.93,6.86-20.49,9.78-30.79,6.82-24.1,15-47.75,21.92-71.81,3.69-12.93,11-24.14,18.12-35.29,6.36-10.05,17.21-14.62,28.36-17,10.36-2.24,18.8,3.33,24.78,14.48a39.21,39.21,0,0,1,4.57,12c.74,4.31,4.36,7.53,5,12.22,1.89,14.24,2.19,28.56,2.75,42.86.38,9.81.07,19.65.07,29.47ZM868.93,224c9.5-.12,18.92-1.59,28.39-1.8,3.32-.08,3.65-1.46,3.68-4.24a264.08,264.08,0,0,0-3.12-44.69c-.76-4.85-1.54-9.86-4.33-14.19-2.61-4.06-8.8-6.07-10.75-3-3,4.76-8.11,7.66-10.34,13.16-2.79,6.89-6.53,13.39-9.78,20.1-4.86,10-8,20.69-11.88,31.12-1.13,3.1-.28,3.68,2.68,3.58C858.62,223.83,863.78,224,868.93,224Z"/></g></g></svg>